<svg xmlns="http://www.w3.org/2000/svg" viewBox="0 0 200 200" width="200" height="200">
  <path fill="#818cf8" opacity="0.6" d="M37.9,-65.8C51.6,-57.6,66.9,-49.5,76.6,-36.8C86.3,-24.1,90.4,-6.8,85.4,8C80.4,22.8,66.3,35.1,53.5,45.3C40.7,55.5,29.2,63.6,15.8,68.6C2.4,73.6,-12.9,75.5,-26.7,71.2C-40.5,66.9,-52.8,56.4,-61.8,43.7C-70.8,31,-76.5,16.1,-77.9,1.1C-79.3,-13.9,-76.4,-29,-68.1,-41.2C-59.8,-53.4,-46.1,-62.7,-32.1,-70.7C-18.1,-78.7,-3.8,-85.4,8.6,-78.9C21,-72.4,30,-57.5,37.9,-65.8Z" transform="translate(100 100) scale(1.1)" />
</svg>
