<svg xmlns="http://www.w3.org/2000/svg" viewBox="0 0 200 200" width="200" height="200">
  <path fill="#38bdf8" opacity="0.6" d="M45.7,-76.3C58.9,-69.3,69.1,-55.3,77.5,-41.1C85.9,-26.9,92.5,-12.4,91.8,1.7C91.1,15.8,83.1,29.5,73.5,41.4C63.9,53.3,52.7,63.4,39.6,70.9C26.5,78.4,11.5,83.3,-3.1,88.1C-17.7,92.9,-32.8,97.6,-45.3,91.5C-57.8,85.4,-67.7,68.5,-75.7,52.3C-83.7,36.1,-89.8,20.6,-90.6,4.6C-91.4,-11.4,-86.9,-27.9,-78,-41.8C-69.1,-55.7,-55.8,-67,-41.4,-73.4C-27,-79.8,-11.5,-81.3,2.6,-85.3C16.7,-89.3,32.5,-83.3,45.7,-76.3Z" transform="translate(100 100) scale(1.1)" />
</svg>
